<?xml version="1.0" encoding="utf-8"?>
<!-- Generator: Adobe Illustrator 22.1.0, SVG Export Plug-In . SVG Version: 6.00 Build 0)  -->
<svg version="1.1" id="_x34_" xmlns="http://www.w3.org/2000/svg" xmlns:xlink="http://www.w3.org/1999/xlink" x="0px" y="0px"
	 viewBox="0 0 512 404.4" style="enable-background:new 0 0 512 404.4;" xml:space="preserve">
<style type="text/css">
	.st0{fill:#6D6758;}
	.st1{fill:#FFFCFA;}
	.st2{opacity:8.000000e-02;fill:#040000;enable-background:new    ;}
	.st3{fill:#807B70;}
	.st4{fill:#FFFFFF;}
</style>
<g>
	<g>
		<rect class="st0" width="512" height="404.4"/>
		<g>
			<g>
				<path class="st1" d="M40.7,17.8H30.5H20.2c-4.1,0-7.4,3.3-7.4,7.4V40c0,4.1,3.3,7.4,7.4,7.4h10.3h10.2c4.1,0,7.4-3.3,7.4-7.4
					V25.2C48.1,21.1,44.8,17.8,40.7,17.8z"/>
				<path class="st1" d="M40.7,75.2H30.5H20.2c-4.1,0-7.4,3.3-7.4,7.4v14.8c0,4.1,3.3,7.4,7.4,7.4h10.3h10.2c4.1,0,7.4-3.3,7.4-7.4
					V82.6C48.1,78.6,44.8,75.2,40.7,75.2z"/>
				<path class="st1" d="M40.7,132.7H30.5H20.2c-4.1,0-7.4,3.3-7.4,7.4v14.8c0,4.1,3.3,7.4,7.4,7.4h10.3h10.2c4.1,0,7.4-3.3,7.4-7.4
					V140C48.1,136,44.8,132.7,40.7,132.7z"/>
				<path class="st1" d="M40.7,190.1H30.5H20.2c-4.1,0-7.4,3.3-7.4,7.4v14.8c0,4.1,3.3,7.4,7.4,7.4h10.3h10.2c4.1,0,7.4-3.3,7.4-7.4
					v-14.8C48.1,193.4,44.8,190.1,40.7,190.1z"/>
				<path class="st1" d="M40.7,247.5H30.5H20.2c-4.1,0-7.4,3.3-7.4,7.4v14.8c0,4.1,3.3,7.4,7.4,7.4h10.3h10.2c4.1,0,7.4-3.3,7.4-7.4
					v-14.8C48.1,250.8,44.8,247.5,40.7,247.5z"/>
				<path class="st1" d="M40.7,304.9H30.5H20.2c-4.1,0-7.4,3.3-7.4,7.4v14.8c0,4.1,3.3,7.4,7.4,7.4h10.3h10.2c4.1,0,7.4-3.3,7.4-7.4
					v-14.8C48.1,308.3,44.8,304.9,40.7,304.9z"/>
				<path class="st1" d="M40.7,362.4H30.5H20.2c-4.1,0-7.4,3.3-7.4,7.4v14.8c0,4.1,3.3,7.4,7.4,7.4h10.3h10.2c4.1,0,7.4-3.3,7.4-7.4
					v-14.8C48.1,365.7,44.8,362.4,40.7,362.4z"/>
			</g>
			<g>
				<path class="st1" d="M490.8,17.8h-10.2h-10.3c-4.1,0-7.4,3.3-7.4,7.4V40c0,4.1,3.3,7.4,7.4,7.4h10.3h10.2c4.1,0,7.4-3.3,7.4-7.4
					V25.2C498.2,21.1,494.9,17.8,490.8,17.8z"/>
				<path class="st1" d="M490.8,75.2h-10.2h-10.3c-4.1,0-7.4,3.3-7.4,7.4v14.8c0,4.1,3.3,7.4,7.4,7.4h10.3h10.2
					c4.1,0,7.4-3.3,7.4-7.4V82.6C498.2,78.6,494.9,75.2,490.8,75.2z"/>
				<path class="st1" d="M490.8,132.7h-10.2h-10.3c-4.1,0-7.4,3.3-7.4,7.4v14.8c0,4.1,3.3,7.4,7.4,7.4h10.3h10.2
					c4.1,0,7.4-3.3,7.4-7.4V140C498.2,136,494.9,132.7,490.8,132.7z"/>
				<path class="st1" d="M490.8,190.1h-10.2h-10.3c-4.1,0-7.4,3.3-7.4,7.4v14.8c0,4.1,3.3,7.4,7.4,7.4h10.3h10.2
					c4.1,0,7.4-3.3,7.4-7.4v-14.8C498.2,193.4,494.9,190.1,490.8,190.1z"/>
				<path class="st1" d="M490.8,247.5h-10.2h-10.3c-4.1,0-7.4,3.3-7.4,7.4v14.8c0,4.1,3.3,7.4,7.4,7.4h10.3h10.2
					c4.1,0,7.4-3.3,7.4-7.4v-14.8C498.2,250.8,494.9,247.5,490.8,247.5z"/>
				<path class="st1" d="M490.8,304.9h-10.2h-10.3c-4.1,0-7.4,3.3-7.4,7.4v14.8c0,4.1,3.3,7.4,7.4,7.4h10.3h10.2
					c4.1,0,7.4-3.3,7.4-7.4v-14.8C498.2,308.3,494.9,304.9,490.8,304.9z"/>
				<path class="st1" d="M490.8,362.4h-10.2h-10.3c-4.1,0-7.4,3.3-7.4,7.4v14.8c0,4.1,3.3,7.4,7.4,7.4h10.3h10.2
					c4.1,0,7.4-3.3,7.4-7.4v-14.8C498.2,365.7,494.9,362.4,490.8,362.4z"/>
			</g>
		</g>
		<path class="st1" d="M450,0v30.9c0,13.9-11.4,25.1-25.1,25.1H87.2c-13.8,0-25.1-11.2-25.1-25.1V0H450z"/>
		<path class="st1" d="M424.8,86.7H87.2c-13.8,0-25.1,11.3-25.1,25.1v186c0,13.8,11.3,25.1,25.1,25.1h337.6
			c13.8,0,25.1-11.3,25.1-25.1v-186C450,98,438.7,86.7,424.8,86.7z"/>
		<path class="st1" d="M450,378.8v25.6H62.1v-25.6c0-13.9,11.4-25.1,25.1-25.1h337.6C438.6,353.7,450,365,450,378.8z"/>
	</g>
	<polygon class="st2" points="512,0 512,404.4 53.8,404.4 458.2,0 	"/>
</g>
<g>
	
		<image style="overflow:visible;opacity:0.3;" width="224" height="224" xlink:href="6EBF14BCA2186935.png"  transform="matrix(1 0 0 1 144 92)">
	</image>
	<g>
		<g>
			<circle class="st3" cx="256" cy="203.9" r="81.6"/>
			<polygon class="st4" points="228.3,158.5 306.9,203.9 228.3,249.3 			"/>
		</g>
	</g>
</g>
</svg>
