<?xml version="1.0" encoding="utf-8"?>
<!-- Generator: Adobe Illustrator 22.1.0, SVG Export Plug-In . SVG Version: 6.00 Build 0)  -->
<svg version="1.1" id="_x35_" xmlns="http://www.w3.org/2000/svg" xmlns:xlink="http://www.w3.org/1999/xlink" x="0px" y="0px"
	 viewBox="0 0 512 421.3" style="enable-background:new 0 0 512 421.3;" xml:space="preserve">
<style type="text/css">
	.st0{fill:#C3C2C6;}
	.st1{fill:#B3B2B6;}
	.st2{fill:#C9C8CD;}
	.st3{fill:#2D2D33;}
	.st4{fill:#E28C88;}
	.st5{opacity:0.4;}
	.st6{fill:#F4F4F5;}
	.st7{fill:#1E1F21;}
	.st8{fill:#121313;}
	.st9{opacity:0.3;fill:#F4F4F5;enable-background:new    ;}
	.st10{opacity:0.2;fill:#F4F4F5;enable-background:new    ;}
	.st11{opacity:0.1;fill:#F4F4F5;enable-background:new    ;}
</style>
<g>
	<g>
		<polygon class="st0" points="339.6,406.2 172.4,406.2 178.3,280.7 333.7,280.7 		"/>
		<polygon class="st1" points="337.5,365.3 174.5,365.3 178.3,285.9 333.7,285.9 		"/>
		<path class="st2" d="M144.6,395.8h222.7c14.1,0,25.6,11.5,25.6,25.6l0,0H119.1l0,0C119.1,407.3,130.6,395.8,144.6,395.8z"/>
	</g>
	<path class="st2" d="M512,186.3v157.4c0,6.3-5.1,11.4-11.3,11.4H11.3C5.1,355.1,0,350,0,343.7V186.3c0-6.3,5.1-11.4,11.3-11.4
		h489.4C506.9,175,512,180.1,512,186.3z"/>
	<path class="st3" d="M512,14.8v286.8H0V14.8h0.4C2.1,6.4,9.7,0,18.6,0h474.9c8.9,0,16.5,6.4,18.2,14.8H512z"/>
	<rect x="30.9" y="29.4" class="st4" width="450.2" height="242.9"/>
	<g class="st5">
		<rect x="56.5" y="83.7" class="st6" width="122" height="59.6"/>
		<rect x="196.8" y="83.7" class="st6" width="122" height="59.6"/>
		<rect x="337.1" y="83.7" class="st6" width="122" height="59.6"/>
		<rect x="56.5" y="152.9" class="st6" width="69.7" height="11.3"/>
		<rect x="86.4" y="51.2" class="st6" width="69.7" height="5.7"/>
		<rect x="56.5" y="234.5" class="st6" width="69.7" height="11.3"/>
		<rect x="56.5" y="171.2" class="st6" width="122.9" height="11.3"/>
		<rect x="56.5" y="192.2" class="st6" width="122.9" height="11.3"/>
		<rect x="56.5" y="213.3" class="st6" width="122.9" height="11.3"/>
		<rect x="199" y="152.9" class="st6" width="69.7" height="11.3"/>
		<rect x="199" y="234.5" class="st6" width="69.7" height="11.3"/>
		<rect x="199" y="171.2" class="st6" width="122.9" height="11.3"/>
		<rect x="199" y="192.2" class="st6" width="122.9" height="11.3"/>
		<rect x="199" y="213.3" class="st6" width="122.9" height="11.3"/>
		<rect x="337" y="152.9" class="st6" width="69.7" height="11.3"/>
		<rect x="337" y="234.5" class="st6" width="69.7" height="11.3"/>
		<rect x="337" y="171.2" class="st6" width="122.9" height="11.3"/>
		<rect x="337" y="192.2" class="st6" width="122.9" height="11.3"/>
		<rect x="337" y="213.3" class="st6" width="122.9" height="11.3"/>
		<path class="st6" d="M72.8,48.1L72.8,48.1c3.3,3.3,3.3,8.7,0,12l0,0c-3.3,3.3-8.7,3.3-12,0l0,0c-3.3-3.3-3.3-8.7,0-12l0,0
			C64.1,44.8,69.5,44.8,72.8,48.1z"/>
		<rect x="427.1" y="50.1" transform="matrix(0.7071 -0.7071 0.7071 0.7071 88.0351 320.6711)" class="st6" width="8" height="8"/>
		<rect x="446.5" y="50.1" transform="matrix(0.7071 -0.7071 0.7071 0.7071 93.7203 334.3857)" class="st6" width="8" height="8"/>
		<rect x="409.8" y="50.1" transform="matrix(0.7071 -0.7071 0.7071 0.7071 82.9328 308.4739)" class="st6" width="8" height="8"/>
	</g>
</g>
<g>
	
		<image style="overflow:visible;opacity:0.3;enable-background:new    ;" width="207" height="369" xlink:href="D094D975AB2D1AB7.png"  transform="matrix(1 0 0 1 283 68)">
	</image>
	<g>
		<g>
			<g>
				<path class="st3" d="M474.9,98.6v307.8c0,8.2-6.7,14.9-14.9,14.9H313.5c-0.9,0-1.8-0.1-2.7-0.3c-6-1.1-10.7-5.9-11.9-11.9
					c-0.2-0.9-0.3-1.8-0.3-2.8V98.6c0-8.2,6.7-14.9,14.9-14.9H460c1,0,2,0.1,3,0.3c5.7,1.2,10.4,5.8,11.5,11.5l0,0
					C474.8,96.6,474.9,97.6,474.9,98.6z"/>
				<path class="st7" d="M409.4,111.9h-45.3c-1.9,0-3.4-1.5-3.4-3.4l0,0c0-1.9,1.5-3.4,3.4-3.4h45.3c1.9,0,3.4,1.5,3.4,3.4l0,0
					C412.8,110.4,411.3,111.9,409.4,111.9z"/>
				<path class="st8" d="M412.7,107.1c-0.6-0.5-1.3-0.7-2.1-0.7h-45.5c-1.8,0-3.3,1.5-3.3,3.3v0.2c0,0.4,0.1,0.9,0.3,1.3
					c-0.8-0.6-1.2-1.5-1.2-2.6v-0.2c0-1.8,1.5-3.3,3.3-3.3h45.5C411,105.1,412.2,105.9,412.7,107.1z"/>
				<circle class="st7" cx="386.8" cy="396.1" r="13.5"/>
				<path class="st8" d="M398.6,387.7c-2.3-1.8-5.1-2.8-8.2-2.8c-7.3,0-13.3,5.9-13.3,13.3c0,3.1,1,5.9,2.8,8.1
					c-3.1-2.4-5.1-6.2-5.1-10.5c0-7.3,5.9-13.3,13.3-13.3C392.4,382.5,396.2,384.5,398.6,387.7z"/>
				<polygon class="st9" points="310.1,127.2 310.1,334.9 310.1,335.3 310.1,370.2 463.4,370.2 463.4,335.3 463.4,334.9 
					463.4,127.2 				"/>
				<g>
					<rect x="310.1" y="127.2" class="st4" width="153.3" height="242.9"/>
					<rect x="310.1" y="335.3" class="st10" width="153.3" height="34.9"/>
					<rect x="310.1" y="334.9" class="st10" width="153.3" height="0.3"/>
					<rect x="310.1" y="334.9" class="st10" width="153.3" height="0.3"/>
					<g class="st5">
						<rect x="331" y="167.4" class="st6" width="113.4" height="52.1"/>
						<polygon class="st6" points="383,233.4 331,233.4 331,228.8 396.2,228.8 						"/>
						<polygon class="st6" points="398.2,153.6 359.3,153.6 359.3,149 411.4,149 						"/>
						<polygon class="st6" points="434.6,252.5 331,252.5 331,247.9 447.8,247.9 						"/>
						<polygon class="st6" points="434.6,271.6 331,271.6 331,261.7 447.8,261.7 						"/>
						<polygon class="st6" points="434.6,285.5 331,285.5 331,280.9 447.8,280.9 						"/>
						<polygon class="st6" points="434.6,304.6 331,304.6 331,299.3 447.8,299.3 						"/>
						<polygon class="st6" points="420,318.5 331,318.5 331,313.8 433.2,313.8 						"/>
						<path class="st6" d="M340.3,139.5l9.6,8.9c0.6,0.5,0.6,1.4,0,2l-9.6,8.9c-0.5,0.5-1.3,0.5-1.8,0l-9.6-8.9
							c-0.6-0.5-0.6-1.4,0-2l9.6-8.9C339,139,339.8,139,340.3,139.5z"/>
						<g>
							<polygon class="st6" points="431.9,135.3 434.2,137.4 431.9,139.6 429.6,137.4 							"/>
							<polygon class="st6" points="439.4,135.3 441.7,137.4 439.4,139.6 437.1,137.4 							"/>
							<polygon class="st6" points="424.4,135.3 426.7,137.4 424.4,139.6 422.1,137.4 							"/>
						</g>
					</g>
					<g>
						<path class="st9" d="M329.7,365.9L329.7,365.9c-6.8,0-12.4-5.6-12.4-12.4l0,0c0-6.8,5.6-12.4,12.4-12.4l0,0
							c6.8,0,12.4,5.6,12.4,12.4l0,0C342.1,360.3,336.5,365.9,329.7,365.9z"/>
						<path class="st9" d="M367.7,365.9L367.7,365.9c-6.8,0-12.4-5.6-12.4-12.4l0,0c0-6.8,5.6-12.4,12.4-12.4l0,0
							c6.8,0,12.4,5.6,12.4,12.4l0,0C380.1,360.3,374.6,365.9,367.7,365.9z"/>
						<path class="st9" d="M405.8,365.9L405.8,365.9c-6.8,0-12.4-5.6-12.4-12.4l0,0c0-6.8,5.6-12.4,12.4-12.4l0,0
							c6.8,0,12.4,5.6,12.4,12.4l0,0C418.2,360.3,412.6,365.9,405.8,365.9z"/>
						<path class="st9" d="M443.8,365.9L443.8,365.9c-6.8,0-12.4-5.6-12.4-12.4l0,0c0-6.8,5.6-12.4,12.4-12.4l0,0
							c6.8,0,12.4,5.6,12.4,12.4l0,0C456.2,360.3,450.6,365.9,443.8,365.9z"/>
					</g>
				</g>
			</g>
			<path class="st11" d="M298.3,95.6L298.3,95.6c1.2-5.8,5.8-10.4,11.5-11.6c1-0.2,2-0.3,3-0.3h73.3v337.6h-73.3
				c-8.2,0-14.9-6.7-14.9-14.9V98.6C298,97.6,298.1,96.6,298.3,95.6z"/>
		</g>
	</g>
</g>
</svg>
