<svg xmlns="http://www.w3.org/2000/svg" viewBox="0 0 530 530"><defs><style>.cls-1{fill:#fff;}</style></defs><title>アートボード 6</title><g id="icon01_パス_円あり"><rect class="cls-1" x="2.5" y="2.5" width="527.5" height="527.5"/><path d="M419.85,270.79c-1.64,4.11-3.29,8.22-4.52,12.41s-2,8.5-1.27,12.59a223.26,223.26,0,0,1,3.11,26.57,204.42,204.42,0,0,1-.08,26.87,132.08,132.08,0,0,1-1.66,13.47c-.39,2.24-.89,4.47-1.45,6.7a51.26,51.26,0,0,1-2.19,6.68,86.33,86.33,0,0,1-6.39,12.24c-2.4,3.88-5,7.59-7.71,11.2A229.79,229.79,0,0,1,380.12,420a238.85,238.85,0,0,1-19.75,18.45c-3.49,2.89-7.12,5.65-10.95,8.23l-11.05,7.42a130.56,130.56,0,0,1-11.78,7.11A44.57,44.57,0,0,1,312.67,466a41.52,41.52,0,0,1-14.87-.61c-2.43-.53-4.49-1.09-6.67-1.64L284.65,462c-17.22-4.68-34.31-9.85-51.2-16-8.44-3.1-16.82-6.46-25.06-10.45a132.21,132.21,0,0,1-12.22-6.65,62.14,62.14,0,0,1-11.66-9.09l-1.33-1.45c-.4-.42-.78-.87-1.16-1.3-.76-.88-1.52-1.74-2.24-2.64-1.41-1.81-2.82-3.61-4.08-5.52a113.34,113.34,0,0,1-7-11.73,100.12,100.12,0,0,1-9.47-25.6.64.64,0,0,1,1.09-.58h0c1.62,1.65,3.11,3.35,4.59,5l2.2,2.54,2.15,2.55c2.84,3.4,5.67,6.76,8.41,10.15s5.52,6.71,8.2,10.08c1.38,1.65,2.67,3.36,4,5l2,2.52c.32.42.67.81,1,1.24s.58.68.88,1a50.28,50.28,0,0,0,9.13,7.38,125.26,125.26,0,0,0,10.94,6.38c7.6,4,15.58,7.47,23.68,10.73,16.23,6.5,33,12,49.86,17l6.34,1.81c2.09.58,4.31,1.22,6.2,1.66a32.15,32.15,0,0,0,11.53.75c7.51-.92,14.88-5.4,22.26-10l11.16-7.18c3.56-2.29,7-4.86,10.45-7.52a231.12,231.12,0,0,0,19.51-17.36,222.7,222.7,0,0,0,17.5-19.42c5.37-6.81,10.37-14,13.8-21.66a69.72,69.72,0,0,0,3.78-12.1A126.74,126.74,0,0,0,412,348.73a200,200,0,0,0,1.28-26.24,220.17,220.17,0,0,0-1.87-26.33c-.54-4.75.57-9.33,2-13.56s3.39-8.28,5.24-12.31a.62.62,0,0,1,1.14.49Z"/><path d="M337.67,336.91a35.71,35.71,0,0,1-1.55,10.52,24.19,24.19,0,0,1-2.3,5.21l-.39.66c0,.06-.06.11-.1.17l-.19.22-.38.44c-.26.31-.51.52-.76.78s-.51.48-.75.68a22.15,22.15,0,0,1-2.91,2.07,16.09,16.09,0,0,1-5.58,2.19,18,18,0,0,1-5.47,0,20,20,0,0,1-10.36-4.46.8.8,0,0,1-.1-1.13l.09-.09,0,0a33.2,33.2,0,0,1,9.07-5.52,27.75,27.75,0,0,1,4.15-1.47,19.87,19.87,0,0,1,3.77-.49c.57,0,1.07-.08,1.42-.13l.24,0c.06,0,.15,0,.17,0l.06,0h0l.1-.06.41-.27a33.54,33.54,0,0,0,3.34-2.72,92.15,92.15,0,0,0,6.81-7l0,0a.66.66,0,0,1,1.15.44Z"/><path d="M366,290.84c10.06,1.83,12,18.43,4.61,26.58s-22.33,6.73-23.39-5.32S354.35,288.71,366,290.84Z"/><path d="M241.35,298.22c11.28,4.12,10.27,23.71,0,31.66s-27.16,3.34-26-10.81S228.25,293.43,241.35,298.22Z"/><path d="M339.17,303.84s11.85-33.9,30.78-46.17c13.41-8.69,25.79-7.9,31.61,12.89s-10,37.85-10,37.85,9.15-14.56,4.16-27.45-16.43-20.59-29.95-10c-13.06,10.25-26.62,36.19-26.62,36.19Z"/><path d="M400.1,288.66s18.72-8.73,22-12.48c0,0-25.79,28.7-30.78,32Z"/><path d="M339.82,303.36c3.95-28.5,22.81-49.36,22.81-49.36A235,235,0,0,0,339.82,303.36Z"/><path d="M363.5,377.67s-23.29,5.82-48.25,10.4-64.05-5.82-64.05-5.82,28.28,44.09,51.57,42.84S333.14,393.06,363.5,377.67Z"/><path d="M193,324.22s16.22-41.39,40.65-55c12.17-6.77,30.71-7.28,37.54,11.53,5,13.73-7.07,29.53-7.07,29.53s2.35-11.2,2.54-14.58c1.2-21.19-19.79-23.41-37.09-11.35-16.72,11.65-35.33,47-35.33,47Z"/><path d="M270.11,289.64s17.29-11.29,20.06-15.47c0,0-21.47,32.05-25.94,36.05Z"/><path d="M196.74,319.07c1.22-31.65,26.59-53.7,26.59-53.7C201.29,293.65,196.74,319.07,196.74,319.07Z"/><path d="M245.79,120.63a86.2,86.2,0,0,1,12.6-5.72,90.54,90.54,0,0,1,13.41-3.8,74.89,74.89,0,0,1,14-1.53A66.89,66.89,0,0,1,300,111a91.26,91.26,0,0,1,13.64,4A119.75,119.75,0,0,1,326.49,121,153.84,153.84,0,0,1,350,136.63a185.19,185.19,0,0,1,20.61,19.3,182.73,182.73,0,0,1,17.48,22.27,297.4,297.4,0,0,1,26.42,49.51,248.76,248.76,0,0,1,9.47,26.6c1.29,4.56,2.43,9.2,3.33,13.94.45,2.37.82,4.78,1.13,7.21l.78,6.93q1.39,13.85,2.14,27.75c.44,9.27.7,18.56.61,27.86s-.47,18.62-1.34,27.92a205.39,205.39,0,0,1-4.3,27.82,168.6,168.6,0,0,1-9,26.56A115.29,115.29,0,0,1,411,432.82c-1.19,2-2.37,4-3.73,5.92a47.28,47.28,0,0,1-4.3,5.48c4.29-8.18,7-16.9,9.4-25.64.6-2.18,1.11-4.4,1.62-6.6s1-4.42,1.46-6.63l1.26-6.66,1.11-6.68a219.87,219.87,0,0,0,2.75-26.79q.59-13.53.25-27.15c-.23-9.07-.65-18.14-1.33-27.21s-1.48-18.13-2.52-27.15l-.79-6.76c-.28-2.12-.61-4.26-1-6.4-.83-4.28-1.9-8.57-3.13-12.83a238.28,238.28,0,0,0-8.89-25.32c-3.39-8.33-7.14-16.55-11.23-24.57s-8.45-15.93-13.23-23.51c-2.38-3.8-4.86-7.52-7.48-11.11s-5.4-7.1-8.27-10.52a194.43,194.43,0,0,0-18.7-19.25,158.1,158.1,0,0,0-21.38-16.18A100.79,100.79,0,0,0,298.74,116a57.82,57.82,0,0,0-13.05-2.39,74.33,74.33,0,0,0-13.45.28A100.9,100.9,0,0,0,245.79,120.63Z"/><path d="M285.31,490.8a34,34,0,0,1-12.76,8.53,40.52,40.52,0,0,1-15.47,2.59c-10.66-.18-20.83-4.56-29.81-9.56a93.44,93.44,0,0,1-24.6-19.76c-7-8-12.6-17-17.49-26.13S176,428,171.88,418.61l-3.07-7-1.51-3.66-1.4-3.69c-1.8-4.93-3.39-9.91-4.84-14.91-5.68-20-9-40.48-11.11-61q-1.52-15.37-2.14-30.8c-.37-10.28-.46-20.57-.19-30.87.15-5.15.37-10.29.7-15.44.15-2.57.36-5.15.55-7.72s.44-5.09.79-7.78A131,131,0,0,1,157.34,205a178.2,178.2,0,0,1,13.57-28.19q3.94-6.72,8.43-13.09t9.38-12.39c3.29-4,6.72-7.9,10.43-11.6a63.25,63.25,0,0,1,5.93-5.3,55.91,55.91,0,0,1,6.75-4.31,72.44,72.44,0,0,1,14.5-5.87c2.48-.73,5-1.37,7.5-1.86a73,73,0,0,1,7.6-1.16,97.94,97.94,0,0,0-27.07,12.94,65.18,65.18,0,0,0-10.65,9.9c-3.3,3.68-6.38,7.62-9.33,11.64a212.79,212.79,0,0,0-15.79,25.4q-3.5,6.59-6.45,13.42c-2,4.54-3.76,9.15-5.32,13.82a126.51,126.51,0,0,0-6.2,28.54c-.25,2.36-.35,4.94-.51,7.41s-.27,5-.36,7.51c-.21,5-.3,10-.33,15.05q-.12,15.07.63,30.14c.43,10,1.21,20.07,2.22,30.06s2.3,19.95,4,29.82c.8,4.94,1.74,9.85,2.74,14.74s2.18,9.73,3.41,14.54,2.67,9.55,4.25,14.21l1.22,3.48,1.3,3.43,2.79,7q2.83,7,5.77,14c2,4.63,4,9.22,6.14,13.71s4.41,8.9,6.89,13.16a118.48,118.48,0,0,0,8.16,12.19,87.29,87.29,0,0,0,21.52,19.76c2,1.39,4.17,2.68,6.32,4,1.07.61,2.14,1.2,3.22,1.78s2.18,1.12,3.31,1.58a54.58,54.58,0,0,0,6.87,2.53,51.86,51.86,0,0,0,7.16,1.49,38.14,38.14,0,0,0,14.64-.94A34.48,34.48,0,0,0,285.31,490.8Z"/><path d="M239.55,72.38a9.39,9.39,0,0,0-2.37-3A16.65,16.65,0,0,0,234,67.21a26.17,26.17,0,0,0-7.2-2.46,57,57,0,0,0-15.24-.61c-2.55.18-5.09.54-7.62.9-1.25.23-2.56.41-3.75.67a35.66,35.66,0,0,0-3.59.95A65.7,65.7,0,0,0,183,72.93a141.13,141.13,0,0,0-24.06,18.6,204.54,204.54,0,0,0-20.49,22.64,243.87,243.87,0,0,0-31.29,52.19A224.4,224.4,0,0,0,90.3,224.48c-.34,2.53-.73,5-1,7.58l-.86,7.6-.73,7.62-.57,7.64c-.63,10.19-1,20.42-1,30.66,0,20.48,1.22,41,3.2,61.49s4.82,40.95,8,61.39,7,40.84,10.52,61.36q-9.88-29.61-17.28-60a617.85,617.85,0,0,1-11.92-61.48,486.91,486.91,0,0,1-4.85-62.7c-.07-10.51.16-21,.93-31.56l.63-7.88.81-7.87,1-7.85c.35-2.61.8-5.22,1.2-7.83A224,224,0,0,1,97.4,161.91a238,238,0,0,1,34.51-53.11,212.13,212.13,0,0,1,22.46-22.35,134.59,134.59,0,0,1,26.26-17.83,68.78,68.78,0,0,1,15-5.67,39.29,39.29,0,0,1,4-.72c1.36-.18,2.63-.26,4-.4,2.63-.18,5.25-.36,7.89-.34a55.32,55.32,0,0,1,15.69,1.88,27.23,27.23,0,0,1,7.24,3.2,16.1,16.1,0,0,1,3,2.52A9.57,9.57,0,0,1,239.55,72.38Z"/><path d="M227.08,76.12a55.64,55.64,0,0,1,4.3-8.26,65.94,65.94,0,0,1,5.5-7.59,53.19,53.19,0,0,1,14.49-12.16c1.4-.77,2.86-1.5,4.31-2.12s2.89-1.23,4.35-1.79q4.38-1.72,8.92-3.08t9.16-2.37c3.09-.68,6.22-1.2,9.36-1.6a104.27,104.27,0,0,1,19.06-.66c3.18.2,6.36.57,9.52,1s6.3,1.11,9.39,1.91a126.23,126.23,0,0,1,35.07,15A119.23,119.23,0,0,1,376,65.75,176,176,0,0,1,389.85,78.9a223.72,223.72,0,0,1,23.58,29.71A235.35,235.35,0,0,1,432,141.74a189.6,189.6,0,0,1,7.11,17.76c1,3,2,6.1,2.82,9.22s1.55,6.16,2.3,9.22c2.89,12.2,5.24,24.5,7.2,36.85S455,239.54,456.12,252s1.95,24.94,2.22,37.47.13,25.08-.71,37.62a537,537,0,0,1-10.43,74.09q-2,9.14-4.39,18.2c-1.6,6-3.44,12-5.4,17.93s-4.17,11.77-6.64,17.5c-1.24,2.86-2.51,5.71-3.94,8.48s-2.89,5.52-4.47,8.18A233.93,233.93,0,0,0,433,436.05c1.37-6,2.5-12,3.6-18.08s2.07-12.11,2.92-18.2c3.47-24.33,5.51-48.85,6.61-73.36.56-12.17.58-24.39.18-36.61s-1.25-24.44-2.42-36.63c-.58-6.1-1.28-12.18-2.05-18.26s-1.61-12.14-2.55-18.2q-2.84-18.15-6.8-36.06c-.69-3-1.34-6-2.1-8.82s-1.61-5.72-2.52-8.56c-1.85-5.67-4-11.28-6.41-16.8s-5.06-10.94-7.92-16.27-5.89-10.57-9.13-15.68a234.27,234.27,0,0,0-21.66-29.07,166.69,166.69,0,0,0-12.63-12.89,112.94,112.94,0,0,0-14.06-11,118.58,118.58,0,0,0-32.37-15.4c-2.87-.87-5.79-1.53-8.72-2.14S309,43,306,42.65a98.55,98.55,0,0,0-18-.29c-3,.23-6,.57-9,1.07s-6,1.09-8.91,1.83-5.87,1.58-8.78,2.52c-1.45.46-2.89,1-4.33,1.48s-2.79,1.05-4.16,1.67a51.85,51.85,0,0,0-14.68,10.5A65.2,65.2,0,0,0,227.08,76.12Z"/><path d="M289.33,232.87S255,212.25,233.19,218s-49.27,53.85-49.27,53.85,39.53-36.09,53.28-38.38,36.09,12,43,10.88S289.33,232.87,289.33,232.87Z"/><path d="M351.77,230c0-3.44,16-18.33,27.5-17.19s35.51,26.57,35.51,26.57-24.05-18.55-35.51-15.11S363.23,238,357.5,238,351.77,233.44,351.77,230Z"/><path d="M266.25,23.19a243.13,243.13,0,0,1,94.6,467A243.13,243.13,0,0,1,171.64,42.28a241.52,241.52,0,0,1,94.61-19.09m0-20.69C120.58,2.5,2.5,120.58,2.5,266.25S120.58,530,266.25,530,530,411.92,530,266.25,411.92,2.5,266.25,2.5Z"/></g></svg>